<?xml version="1.0" encoding="UTF-8"?>
<!DOCTYPE svg PUBLIC "-//W3C//DTD SVG 1.1//EN" "http://www.w3.org/Graphics/SVG/1.1/DTD/svg11.dtd">
<svg xmlns="http://www.w3.org/2000/svg" version="1.1" width="51px" height="51px" style="shape-rendering:geometricPrecision; text-rendering:geometricPrecision; image-rendering:optimizeQuality; fill-rule:evenodd; clip-rule:evenodd" xmlns:xlink="http://www.w3.org/1999/xlink">
<g><path style="opacity:1" fill="#aef015" d="M 4.5,-0.5 C 18.1667,-0.5 31.8333,-0.5 45.5,-0.5C 47.5,0.833333 49.1667,2.5 50.5,4.5C 50.5,18.1667 50.5,31.8333 50.5,45.5C 49.1667,47.5 47.5,49.1667 45.5,50.5C 31.8333,50.5 18.1667,50.5 4.5,50.5C 2.5,49.1667 0.833333,47.5 -0.5,45.5C -0.5,31.8333 -0.5,18.1667 -0.5,4.5C 1.16667,2.83333 2.83333,1.16667 4.5,-0.5 Z"/></g>
<g><path style="opacity:1" fill="#040500" d="M 28.5,5.5 C 31.4475,5.22288 34.2809,5.55621 37,6.5C 41.7248,19.9941 39.8915,32.4941 31.5,44C 21.7642,46.3552 20.2642,44.1885 27,37.5C 32.4294,27.0793 32.9294,16.4127 28.5,5.5 Z"/></g>
<g><path style="opacity:1" fill="#050601" d="M 14.5,13.5 C 17.8984,13.1796 21.2317,13.513 24.5,14.5C 23.2147,17.0205 22.5481,19.6872 22.5,22.5C 19.5,22.5 16.5,22.5 13.5,22.5C 13.9629,19.5176 14.2962,16.5176 14.5,13.5 Z"/></g>
<g><path style="opacity:1" fill="#465e08" d="M 11.5,28.5 C 14.6248,27.5206 17.9581,27.1872 21.5,27.5C 21.7373,28.791 21.404,29.791 20.5,30.5C 18.0122,28.6122 15.0122,27.9455 11.5,28.5 Z"/></g>
<g><path style="opacity:1" fill="#000000" d="M 11.5,28.5 C 15.0122,27.9455 18.0122,28.6122 20.5,30.5C 19.8505,32.4352 19.5172,34.4352 19.5,36.5C 16.2869,36.81 13.2869,36.4767 10.5,35.5C 11.2186,33.2362 11.552,30.9029 11.5,28.5 Z"/></g>
<g><path style="opacity:1" fill="#5f810b" d="M 10.5,35.5 C 13.2869,36.4767 16.2869,36.81 19.5,36.5C 16.3132,37.8056 12.9798,37.8056 9.5,36.5C 9.62358,35.8933 9.95691,35.56 10.5,35.5 Z"/></g>
</svg>
